<mxfile host="app.diagrams.net" agent="Mozilla/5.0 (X11; Linux x86_64) AppleWebKit/537.36 (KHTML, like Gecko) Chrome/116.0.0.0 Safari/537.36" version="24.7.8">
  <diagram name="Halaman-1" id="IGmwZ3JJ6Kt0b4rXDynM">
    <mxGraphModel dx="1058" dy="623" grid="1" gridSize="10" guides="1" tooltips="1" connect="1" arrows="1" fold="1" page="1" pageScale="1" pageWidth="827" pageHeight="1169" math="0" shadow="0">
      <root>
        <mxCell id="0" />
        <mxCell id="1" parent="0" />
        <mxCell id="FZSRxB6wHKWrwxJ7p5sn-1" value="Walikelas" style="shape=umlActor;verticalLabelPosition=bottom;verticalAlign=top;html=1;outlineConnect=0;" vertex="1" parent="1">
          <mxGeometry x="120" y="200" width="80" height="120" as="geometry" />
        </mxCell>
        <mxCell id="FZSRxB6wHKWrwxJ7p5sn-2" value="" style="rounded=0;whiteSpace=wrap;html=1;" vertex="1" parent="1">
          <mxGeometry x="280" y="130" width="240" height="310" as="geometry" />
        </mxCell>
        <mxCell id="FZSRxB6wHKWrwxJ7p5sn-3" value="Siswa" style="shape=umlActor;verticalLabelPosition=bottom;verticalAlign=top;html=1;outlineConnect=0;" vertex="1" parent="1">
          <mxGeometry x="600" y="200" width="80" height="120" as="geometry" />
        </mxCell>
        <mxCell id="FZSRxB6wHKWrwxJ7p5sn-6" value="Login" style="ellipse;whiteSpace=wrap;html=1;" vertex="1" parent="1">
          <mxGeometry x="340" y="150" width="110" height="50" as="geometry" />
        </mxCell>
        <mxCell id="FZSRxB6wHKWrwxJ7p5sn-8" value="Lihat Jadwal Piket" style="ellipse;whiteSpace=wrap;html=1;" vertex="1" parent="1">
          <mxGeometry x="340" y="220" width="110" height="50" as="geometry" />
        </mxCell>
        <mxCell id="FZSRxB6wHKWrwxJ7p5sn-10" value="Lihat Riwayat Piket" style="ellipse;whiteSpace=wrap;html=1;" vertex="1" parent="1">
          <mxGeometry x="340" y="290" width="110" height="50" as="geometry" />
        </mxCell>
        <mxCell id="FZSRxB6wHKWrwxJ7p5sn-13" value="Piket" style="ellipse;whiteSpace=wrap;html=1;" vertex="1" parent="1">
          <mxGeometry x="340" y="360" width="110" height="50" as="geometry" />
        </mxCell>
        <mxCell id="FZSRxB6wHKWrwxJ7p5sn-15" value="" style="endArrow=none;html=1;rounded=0;entryX=0;entryY=0.34;entryDx=0;entryDy=0;entryPerimeter=0;" edge="1" parent="1" target="FZSRxB6wHKWrwxJ7p5sn-6">
          <mxGeometry width="50" height="50" relative="1" as="geometry">
            <mxPoint x="210" y="230" as="sourcePoint" />
            <mxPoint x="440" y="300" as="targetPoint" />
            <Array as="points">
              <mxPoint x="250" y="167" />
            </Array>
          </mxGeometry>
        </mxCell>
        <mxCell id="FZSRxB6wHKWrwxJ7p5sn-16" value="" style="endArrow=none;html=1;rounded=0;entryX=0;entryY=0.5;entryDx=0;entryDy=0;" edge="1" parent="1" target="FZSRxB6wHKWrwxJ7p5sn-10">
          <mxGeometry width="50" height="50" relative="1" as="geometry">
            <mxPoint x="210" y="270" as="sourcePoint" />
            <mxPoint x="440" y="300" as="targetPoint" />
          </mxGeometry>
        </mxCell>
        <mxCell id="FZSRxB6wHKWrwxJ7p5sn-18" value="" style="endArrow=none;html=1;rounded=0;exitX=0.982;exitY=0.34;exitDx=0;exitDy=0;exitPerimeter=0;" edge="1" parent="1" source="FZSRxB6wHKWrwxJ7p5sn-13" target="FZSRxB6wHKWrwxJ7p5sn-3">
          <mxGeometry width="50" height="50" relative="1" as="geometry">
            <mxPoint x="447" y="370" as="sourcePoint" />
            <mxPoint x="440" y="300" as="targetPoint" />
          </mxGeometry>
        </mxCell>
        <mxCell id="FZSRxB6wHKWrwxJ7p5sn-19" value="" style="endArrow=none;html=1;rounded=0;" edge="1" parent="1" source="FZSRxB6wHKWrwxJ7p5sn-8">
          <mxGeometry width="50" height="50" relative="1" as="geometry">
            <mxPoint x="390" y="350" as="sourcePoint" />
            <mxPoint x="590" y="260" as="targetPoint" />
          </mxGeometry>
        </mxCell>
        <mxCell id="FZSRxB6wHKWrwxJ7p5sn-22" value="" style="endArrow=none;html=1;rounded=0;exitX=0.945;exitY=0.3;exitDx=0;exitDy=0;exitPerimeter=0;" edge="1" parent="1" source="FZSRxB6wHKWrwxJ7p5sn-6">
          <mxGeometry width="50" height="50" relative="1" as="geometry">
            <mxPoint x="390" y="350" as="sourcePoint" />
            <mxPoint x="590" y="220" as="targetPoint" />
            <Array as="points">
              <mxPoint x="570" y="165" />
            </Array>
          </mxGeometry>
        </mxCell>
      </root>
    </mxGraphModel>
  </diagram>
</mxfile>
